<?xml version="1.0" encoding="utf-8"?>
<!-- Generator: Adobe Illustrator 19.2.1, SVG Export Plug-In . SVG Version: 6.00 Build 0)  -->
<svg version="1.1" id="Layer_1" xmlns="http://www.w3.org/2000/svg" xmlns:xlink="http://www.w3.org/1999/xlink" x="0px" y="0px"
	 viewBox="0 0 376 376" style="enable-background:new 0 0 376 376;" xml:space="preserve">
<style type="text/css">
	.st0{fill:#FFFFFF;}
	.st1{fill:none;stroke:#FFFFFF;stroke-width:2;stroke-miterlimit:10;}
</style>
<path class="st0" d="M61,284.1c-1-0.8-2.3-1.4-3.7-1.7c-1-0.2-2.6-0.3-4.6-0.3h-8.8v23.6h9.2c1.5,0,2.9-0.1,4.1-0.4
	c1.2-0.3,2.2-0.7,3.1-1.2c0.8-0.5,1.6-1.2,2.3-2.1c0.7-0.9,1.3-2.1,1.7-3.4c0.5-1.4,0.7-3,0.7-4.8c0-2.1-0.3-4-1-5.6
	C63.4,286.5,62.4,285.1,61,284.1z M60.9,298.2c-0.4,1.3-1.1,2.2-1.9,3c-0.6,0.5-1.3,0.9-2.3,1.2c-1,0.3-2.3,0.4-4,0.4h-5.5v-18h5.4
	c2,0,3.5,0.2,4.4,0.5c1.3,0.5,2.3,1.3,3.2,2.7c0.9,1.3,1.3,3.2,1.3,5.7C61.6,295.5,61.4,297,60.9,298.2z"/>
<polygon class="st0" points="74.1,294.9 88.2,294.9 88.2,292.1 74.1,292.1 74.1,284.8 89.2,284.8 89.2,282.1 70.7,282.1 70.7,305.7 
	89.8,305.7 89.8,302.9 74.1,302.9 "/>
<path class="st0" d="M110.2,293.2c-1-0.4-2.9-0.9-5.7-1.5c-2.7-0.6-4.4-1.1-5.1-1.7c-0.7-0.5-1-1.2-1-2.1c0-1,0.5-1.8,1.4-2.5
	c0.9-0.7,2.4-1,4.5-1c2,0,3.4,0.4,4.5,1.1c1,0.8,1.6,1.9,1.8,3.4l3.2-0.2c-0.1-1.4-0.5-2.6-1.3-3.7c-0.8-1.1-1.9-1.9-3.3-2.5
	c-1.4-0.6-3.1-0.8-5-0.8c-1.7,0-3.3,0.3-4.7,0.8s-2.5,1.3-3.2,2.4c-0.7,1-1.1,2.2-1.1,3.3c0,1.1,0.3,2.1,0.9,2.9
	c0.6,0.9,1.5,1.6,2.7,2.2c0.9,0.5,2.6,1,4.9,1.5c2.3,0.5,3.9,0.9,4.6,1.2c1.1,0.4,1.8,0.8,2.3,1.4c0.5,0.6,0.7,1.2,0.7,1.9
	c0,0.7-0.2,1.4-0.7,2c-0.5,0.6-1.2,1.1-2.2,1.5c-1,0.4-2.1,0.5-3.4,0.5c-1.5,0-2.8-0.2-3.9-0.7c-1.2-0.5-2-1.1-2.6-1.8
	c-0.6-0.8-0.9-1.7-1.1-2.9l-3.2,0.3c0,1.6,0.5,3,1.4,4.2c0.9,1.3,2.1,2.2,3.7,2.8c1.6,0.6,3.5,0.9,5.8,0.9c1.8,0,3.5-0.3,4.9-0.9
	c1.5-0.6,2.6-1.5,3.4-2.6c0.8-1.1,1.2-2.3,1.2-3.6c0-1.3-0.4-2.4-1.1-3.4C112.8,294.7,111.7,293.9,110.2,293.2z"/>
<rect x="120.6" y="282.1" class="st0" width="3.4" height="23.6"/>
<path class="st0" d="M142.8,296.4h7.5v4.4c-0.7,0.6-1.8,1.1-3.2,1.7c-1.4,0.5-2.8,0.8-4.3,0.8c-1.7,0-3.3-0.3-4.8-1
	s-2.6-1.7-3.4-3.2c-0.8-1.4-1.2-3.2-1.2-5.3c0-1.7,0.3-3.3,1-4.8c0.4-0.8,0.9-1.6,1.6-2.3c0.7-0.7,1.6-1.3,2.7-1.7
	c1.1-0.4,2.5-0.7,4-0.7c1.3,0,2.5,0.2,3.5,0.6c1.1,0.4,1.9,1,2.4,1.7c0.6,0.7,1,1.6,1.4,2.8l3.1-0.8c-0.4-1.6-1.1-2.9-1.9-3.9
	c-0.8-1-2-1.8-3.5-2.3c-1.5-0.6-3.2-0.8-5-0.8c-2.5,0-4.8,0.5-6.7,1.5c-2,1-3.5,2.4-4.5,4.4c-1,2-1.6,4.1-1.6,6.4
	c0,2.3,0.5,4.4,1.6,6.3c1,1.9,2.6,3.3,4.6,4.3c2.1,1,4.3,1.5,6.8,1.5c1.9,0,3.7-0.3,5.4-0.9c1.8-0.6,3.5-1.5,5.1-2.8v-8.8l-10.8,0
	V296.4z"/>
<polygon class="st0" points="176.4,300.6 163,282.1 159.5,282.1 159.5,305.7 162.7,305.7 162.7,287.1 176.2,305.7 179.6,305.7 
	179.6,282.1 176.4,282.1 "/>
<path class="st0" d="M211.9,293.2c-1-0.4-2.9-0.9-5.7-1.5c-2.7-0.6-4.4-1.1-5.1-1.7c-0.7-0.5-1-1.2-1-2.1c0-1,0.5-1.8,1.4-2.5
	c0.9-0.7,2.4-1,4.5-1c2,0,3.4,0.4,4.5,1.1c1,0.8,1.6,1.9,1.8,3.4l3.2-0.2c-0.1-1.4-0.5-2.6-1.3-3.7c-0.8-1.1-1.9-1.9-3.3-2.5
	c-1.4-0.6-3.1-0.8-5-0.8c-1.7,0-3.3,0.3-4.7,0.8c-1.4,0.5-2.5,1.3-3.2,2.4c-0.7,1-1.1,2.2-1.1,3.3c0,1.1,0.3,2.1,0.9,2.9
	c0.6,0.9,1.5,1.6,2.7,2.2c0.9,0.5,2.6,1,4.9,1.5c2.3,0.5,3.9,0.9,4.6,1.2c1.1,0.4,1.8,0.8,2.3,1.4c0.5,0.6,0.7,1.2,0.7,1.9
	c0,0.7-0.2,1.4-0.7,2c-0.5,0.6-1.2,1.1-2.2,1.5s-2.1,0.5-3.4,0.5c-1.5,0-2.8-0.2-3.9-0.7c-1.2-0.5-2-1.1-2.6-1.8
	c-0.6-0.8-0.9-1.7-1.1-2.9l-3.2,0.3c0,1.6,0.5,3,1.4,4.2c0.9,1.3,2.1,2.2,3.7,2.8c1.6,0.6,3.5,0.9,5.8,0.9c1.8,0,3.5-0.3,4.9-0.9
	c1.5-0.6,2.6-1.5,3.4-2.6c0.8-1.1,1.2-2.3,1.2-3.6c0-1.3-0.4-2.4-1.1-3.4C214.5,294.7,213.4,293.9,211.9,293.2z"/>
<polygon class="st0" points="219.8,284.8 228.3,284.8 228.3,305.7 231.6,305.7 231.6,284.8 240.1,284.8 240.1,282.1 219.8,282.1 "/>
<path class="st0" d="M261.2,295.7c0,3-0.5,5-1.6,6c-1.1,1-2.8,1.6-5.3,1.6c-1.5,0-2.7-0.3-3.7-0.8c-1-0.5-1.7-1.3-2.1-2.2
	c-0.4-1-0.6-2.5-0.6-4.5v-13.6h-3.4v13.6c0,2.5,0.3,4.5,1,5.9c0.7,1.4,1.7,2.5,3.3,3.3s3.5,1.1,5.9,1.1c2.5,0,4.5-0.4,6-1.3
	c1.5-0.9,2.6-2,3.1-3.4c0.6-1.4,0.9-3.3,0.9-5.7v-13.6h-3.4V295.7z"/>
<path class="st0" d="M288.2,284.1c-1-0.8-2.3-1.4-3.7-1.7c-1-0.2-2.6-0.3-4.6-0.3h-8.8v23.6h9.2c1.5,0,2.9-0.1,4.1-0.4
	c1.2-0.3,2.2-0.7,3.1-1.2c0.8-0.5,1.6-1.2,2.3-2.1c0.7-0.9,1.3-2.1,1.7-3.4c0.5-1.4,0.7-3,0.7-4.8c0-2.1-0.3-4-1-5.6
	C290.6,286.5,289.6,285.1,288.2,284.1z M288.1,298.2c-0.4,1.3-1.1,2.2-1.9,3c-0.6,0.5-1.3,0.9-2.3,1.2c-1,0.3-2.3,0.4-4,0.4h-5.5
	v-18h5.4c2,0,3.5,0.2,4.4,0.5c1.3,0.5,2.3,1.3,3.2,2.7c0.9,1.3,1.3,3.2,1.3,5.7C288.8,295.5,288.6,297,288.1,298.2z"/>
<rect x="298.4" y="282.1" class="st0" width="3.4" height="23.6"/>
<path class="st0" d="M326.2,283.2c-1.9-1-4-1.6-6.4-1.6c-3.6,0-6.5,1.1-8.8,3.3c-2.3,2.2-3.4,5.3-3.4,9.2c0,2.1,0.5,4,1.5,5.9
	s2.4,3.3,4.3,4.4c1.9,1.1,4,1.6,6.5,1.6c2.2,0,4.3-0.5,6.2-1.5c1.9-1,3.4-2.4,4.4-4.3c1-1.9,1.6-4,1.6-6.4c0-2.4-0.5-4.5-1.5-6.3
	C329.6,285.7,328.1,284.2,326.2,283.2z M326.1,300.9c-1.6,1.7-3.7,2.5-6.3,2.5c-2.5,0-4.6-0.8-6.2-2.5c-1.7-1.6-2.5-3.9-2.5-6.7
	c0-3.6,0.9-6.1,2.6-7.6c1.7-1.5,3.8-2.3,6.2-2.3c1.7,0,3.2,0.4,4.6,1.2c1.4,0.8,2.4,1.9,3.1,3.3c0.7,1.4,1.1,3.1,1.1,5
	C328.6,296.9,327.8,299.3,326.1,300.9z"/>
<rect x="8.5" y="8.5" class="st1" width="359" height="359"/>
<g>
	<path class="st0" d="M58.3,201.5l27.8-3.9c1.4,22.3,4.7,28.4,17.4,28.4c15.3,0,17.2-7.8,17.2-19.8c0-34.5-59.8-26.2-59.8-85.5
		c0-29.2,9.4-50.7,43.1-50.7c36.3,0,40.6,22.3,42.5,54.9l-27.2,2.7c-1.4-20.8-3.9-27.2-16.3-27.2c-12.2,0-14.7,6.9-14.7,17.6
		c0,33.3,60,26.5,60,86c0,30.1-8.6,52.7-44.9,52.7C66.9,256.6,60.4,233.3,58.3,201.5z"/>
	<path class="st0" d="M205.6,187h-10.2v68.1h-28V71.4h44.5c33.9,0,42.3,15.7,42.3,50.7v14.5c0,25.5-4.7,40.7-20.4,47l23.1,71.5
		h-29.2L205.6,187z M211.7,156.6c13.3,0,14.9-5.9,14.9-22.8v-9.1c0-16.9-1.6-22.5-13.9-22.5h-17.2v54.4H211.7z"/>
	<path class="st0" d="M269.1,223.3h4.1c14.5,0,15.9-3.2,15.9-20.8V71.4h28.6v133.8c0,36.5-6.5,50-40.8,50h-7.8V223.3z"/>
</g>
</svg>
