<svg xmlns="http://www.w3.org/2000/svg" viewBox="0 0 376 376" enable-background="new 0 0 376 376"><style type="text/css">.st0{fill:#FFFFFF;} .st1{fill:none;stroke:#FFFFFF;stroke-width:2;stroke-miterlimit:10;}</style><path class="st0" d="M73.7 255.1h28.5v-151.9h29.9v-31.8h-88.2v31.8h29.8zM170.9 117.9c0-10.8 2.5-17.6 14.7-17.6 12.3 0 14.9 6.4 16.3 27.2l27.2-2.7c-2-32.6-6.3-54.9-42.5-54.9-33.7 0-43.1 21.6-43.1 50.7 0 59.3 59.8 51 59.8 85.5 0 12-2 19.8-17.2 19.8-12.7 0-16.1-6.1-17.4-28.4l-27.8 3.9c2.2 31.8 8.6 55.1 45.3 55.1 36.3 0 44.9-22.5 44.9-52.7-.2-59.4-60.2-52.5-60.2-85.9zM304.8 71.4l-19 129.1h-.2l-19-129.1h-28.2l30.2 183.7h33.3l30.2-183.7zM61 284.1c-1-.8-2.3-1.4-3.7-1.7-1-.2-2.6-.3-4.6-.3h-8.8v23.6h9.2c1.5 0 2.9-.1 4.1-.4 1.2-.3 2.2-.7 3.1-1.2.8-.5 1.6-1.2 2.3-2.1.7-.9 1.3-2.1 1.7-3.4.5-1.4.7-3 .7-4.8 0-2.1-.3-4-1-5.6-.6-1.7-1.6-3.1-3-4.1zm-.1 14.1c-.4 1.3-1.1 2.2-1.9 3-.6.5-1.3.9-2.3 1.2-1 .3-2.3.4-4 .4h-5.5v-18h5.4c2 0 3.5.2 4.4.5 1.3.5 2.3 1.3 3.2 2.7.9 1.3 1.3 3.2 1.3 5.7.1 1.8-.1 3.3-.6 4.5zM74.1 294.9h14.1v-2.8h-14.1v-7.3h15.1v-2.7h-18.5v23.6h19.1v-2.8h-15.7zM110.2 293.2c-1-.4-2.9-.9-5.7-1.5-2.7-.6-4.4-1.1-5.1-1.7-.7-.5-1-1.2-1-2.1 0-1 .5-1.8 1.4-2.5.9-.7 2.4-1 4.5-1 2 0 3.4.4 4.5 1.1 1 .8 1.6 1.9 1.8 3.4l3.2-.2c-.1-1.4-.5-2.6-1.3-3.7s-1.9-1.9-3.3-2.5c-1.4-.6-3.1-.8-5-.8-1.7 0-3.3.3-4.7.8s-2.5 1.3-3.2 2.4c-.7 1-1.1 2.2-1.1 3.3 0 1.1.3 2.1.9 2.9.6.9 1.5 1.6 2.7 2.2.9.5 2.6 1 4.9 1.5 2.3.5 3.9.9 4.6 1.2 1.1.4 1.8.8 2.3 1.4.5.6.7 1.2.7 1.9s-.2 1.4-.7 2c-.5.6-1.2 1.1-2.2 1.5-1 .4-2.1.5-3.4.5-1.5 0-2.8-.2-3.9-.7-1.2-.5-2-1.1-2.6-1.8-.6-.8-.9-1.7-1.1-2.9l-3.2.3c0 1.6.5 3 1.4 4.2.9 1.3 2.1 2.2 3.7 2.8 1.6.6 3.5.9 5.8.9 1.8 0 3.5-.3 4.9-.9 1.5-.6 2.6-1.5 3.4-2.6.8-1.1 1.2-2.3 1.2-3.6 0-1.3-.4-2.4-1.1-3.4-.7-.9-1.8-1.7-3.3-2.4zM120.6 282.1h3.4v23.6h-3.4zM142.8 296.4h7.5v4.4c-.7.6-1.8 1.1-3.2 1.7-1.4.5-2.8.8-4.3.8-1.7 0-3.3-.3-4.8-1s-2.6-1.7-3.4-3.2c-.8-1.4-1.2-3.2-1.2-5.3 0-1.7.3-3.3 1-4.8.4-.8.9-1.6 1.6-2.3.7-.7 1.6-1.3 2.7-1.7 1.1-.4 2.5-.7 4-.7 1.3 0 2.5.2 3.5.6 1.1.4 1.9 1 2.4 1.7.6.7 1 1.6 1.4 2.8l3.1-.8c-.4-1.6-1.1-2.9-1.9-3.9-.8-1-2-1.8-3.5-2.3-1.5-.6-3.2-.8-5-.8-2.5 0-4.8.5-6.7 1.5-2 1-3.5 2.4-4.5 4.4-1 2-1.6 4.1-1.6 6.4 0 2.3.5 4.4 1.6 6.3 1 1.9 2.6 3.3 4.6 4.3 2.1 1 4.3 1.5 6.8 1.5 1.9 0 3.7-.3 5.4-.9 1.8-.6 3.5-1.5 5.1-2.8v-8.8h-10.8v2.9zM176.4 300.6l-13.4-18.5h-3.5v23.6h3.2v-18.6l13.5 18.6h3.4v-23.6h-3.2zM211.9 293.2c-1-.4-2.9-.9-5.7-1.5-2.7-.6-4.4-1.1-5.1-1.7-.7-.5-1-1.2-1-2.1 0-1 .5-1.8 1.4-2.5.9-.7 2.4-1 4.5-1 2 0 3.4.4 4.5 1.1 1 .8 1.6 1.9 1.8 3.4l3.2-.2c-.1-1.4-.5-2.6-1.3-3.7s-1.9-1.9-3.3-2.5c-1.4-.6-3.1-.8-5-.8-1.7 0-3.3.3-4.7.8-1.4.5-2.5 1.3-3.2 2.4-.7 1-1.1 2.2-1.1 3.3 0 1.1.3 2.1.9 2.9.6.9 1.5 1.6 2.7 2.2.9.5 2.6 1 4.9 1.5 2.3.5 3.9.9 4.6 1.2 1.1.4 1.8.8 2.3 1.4.5.6.7 1.2.7 1.9s-.2 1.4-.7 2c-.5.6-1.2 1.1-2.2 1.5s-2.1.5-3.4.5c-1.5 0-2.8-.2-3.9-.7-1.2-.5-2-1.1-2.6-1.8-.6-.8-.9-1.7-1.1-2.9l-3.2.3c0 1.6.5 3 1.4 4.2.9 1.3 2.1 2.2 3.7 2.8 1.6.6 3.5.9 5.8.9 1.8 0 3.5-.3 4.9-.9 1.5-.6 2.6-1.5 3.4-2.6.8-1.1 1.2-2.3 1.2-3.6 0-1.3-.4-2.4-1.1-3.4-.7-.9-1.8-1.7-3.3-2.4zM219.8 284.8h8.5v20.9h3.3v-20.9h8.5v-2.7h-20.3zM261.2 295.7c0 3-.5 5-1.6 6s-2.8 1.6-5.3 1.6c-1.5 0-2.7-.3-3.7-.8s-1.7-1.3-2.1-2.2c-.4-1-.6-2.5-.6-4.5v-13.6h-3.4v13.6c0 2.5.3 4.5 1 5.9.7 1.4 1.7 2.5 3.3 3.3s3.5 1.1 5.9 1.1c2.5 0 4.5-.4 6-1.3s2.6-2 3.1-3.4c.6-1.4.9-3.3.9-5.7v-13.6h-3.4v13.6zM288.2 284.1c-1-.8-2.3-1.4-3.7-1.7-1-.2-2.6-.3-4.6-.3h-8.8v23.6h9.2c1.5 0 2.9-.1 4.1-.4 1.2-.3 2.2-.7 3.1-1.2.8-.5 1.6-1.2 2.3-2.1.7-.9 1.3-2.1 1.7-3.4.5-1.4.7-3 .7-4.8 0-2.1-.3-4-1-5.6-.6-1.7-1.6-3.1-3-4.1zm-.1 14.1c-.4 1.3-1.1 2.2-1.9 3-.6.5-1.3.9-2.3 1.2-1 .3-2.3.4-4 .4h-5.5v-18h5.4c2 0 3.5.2 4.4.5 1.3.5 2.3 1.3 3.2 2.7.9 1.3 1.3 3.2 1.3 5.7.1 1.8-.1 3.3-.6 4.5zM298.4 282.1h3.4v23.6h-3.4zM326.2 283.2c-1.9-1-4-1.6-6.4-1.6-3.6 0-6.5 1.1-8.8 3.3-2.3 2.2-3.4 5.3-3.4 9.2 0 2.1.5 4 1.5 5.9s2.4 3.3 4.3 4.4c1.9 1.1 4 1.6 6.5 1.6 2.2 0 4.3-.5 6.2-1.5 1.9-1 3.4-2.4 4.4-4.3 1-1.9 1.6-4 1.6-6.4 0-2.4-.5-4.5-1.5-6.3-1-1.8-2.5-3.3-4.4-4.3zm-.1 17.7c-1.6 1.7-3.7 2.5-6.3 2.5-2.5 0-4.6-.8-6.2-2.5-1.7-1.6-2.5-3.9-2.5-6.7 0-3.6.9-6.1 2.6-7.6 1.7-1.5 3.8-2.3 6.2-2.3 1.7 0 3.2.4 4.6 1.2 1.4.8 2.4 1.9 3.1 3.3.7 1.4 1.1 3.1 1.1 5-.1 3.1-.9 5.5-2.6 7.1z"/><path class="st1" d="M8.5 8.5h359v359h-359z"/></svg>